<?xml version="1.0" encoding="utf-8"?>
<!-- Generator: Adobe Illustrator 22.1.0, SVG Export Plug-In . SVG Version: 6.00 Build 0)  -->
<svg version="1.1" id="Camada_1" xmlns="http://www.w3.org/2000/svg" xmlns:xlink="http://www.w3.org/1999/xlink" x="0px" y="0px"
	 viewBox="0 0 1920 1080" style="enable-background:new 0 0 1920 1080;" xml:space="preserve">
<style type="text/css">
	.st0{fill:#F7F9F8;}
	.st1{fill:#003D79;}
	.st2{fill:none;}
	.st3{display:none;fill:#022749;}
	.st4{fill:#F74703;}
</style>
<g>
	<path class="st0" d="M1355.7,642.1c-26.9,0-48.8-24.6-48.8-54.8c0-3.3,2.4-5.9,5.3-5.9c2.9,0,5.3,2.7,5.3,5.9
		c0,23.7,17.2,42.9,38.3,42.9c21.1,0,38.3-19.3,38.3-42.9c0-3.3,2.4-5.9,5.3-5.9c2.9,0,5.3,2.7,5.3,5.9
		C1404.6,617.6,1382.7,642.1,1355.7,642.1L1355.7,642.1z"/>
</g>
<g>
	<path class="st0" d="M298.8,470.6c9.5,9.4,14.3,23.4,14.3,41.9v74.3h-23.4v-71.7c0-12.5-2.9-21.9-8.7-28.3
		c-5.8-6.3-14-9.5-24.7-9.5c-11.9,0-21.3,3.7-28.3,11.1c-7,7.4-10.5,18-10.5,31.8v66.5h-23.4v-71.7c0-12.5-2.9-21.9-8.7-28.3
		c-5.8-6.3-14-9.5-24.7-9.5c-11.9,0-21.3,3.7-28.3,11.1c-7,7.4-10.5,18-10.5,31.8v66.5H98.5V457.6h22.4v19.3
		c4.7-6.7,10.9-11.7,18.5-15.2c7.6-3.5,16.3-5.2,26.1-5.2c10.1,0,19,2,26.8,6.1c7.8,4.1,13.8,10,18,17.8
		c4.9-7.5,11.7-13.3,20.4-17.6c8.7-4.2,18.5-6.3,29.4-6.3C276.4,456.4,289.3,461.1,298.8,470.6z"/>
	<path class="st0" d="M473.2,530H368.3c1.5,11.4,6.5,20.5,15,27.4c8.5,6.9,19.1,10.4,31.8,10.4c15.4,0,27.9-5.2,37.3-15.6l12.9,15.1
		c-5.9,6.8-13.1,12-21.8,15.6c-8.7,3.6-18.4,5.4-29.1,5.4c-13.7,0-25.8-2.8-36.3-8.4c-10.6-5.6-18.7-13.4-24.5-23.5
		c-5.8-10.1-8.7-21.5-8.7-34.1c0-12.5,2.8-23.8,8.4-33.9c5.6-10.1,13.3-17.9,23.2-23.5c9.8-5.6,20.9-8.4,33.3-8.4
		c12.3,0,23.4,2.8,33,8.4c9.7,5.6,17.2,13.4,22.7,23.5c5.4,10.1,8.2,21.6,8.2,34.6C473.7,524.8,473.5,527.1,473.2,530z M381.6,486.4
		c-7.6,6.8-12,15.8-13.3,26.8h82.9c-1.3-10.9-5.7-19.8-13.3-26.7c-7.6-6.9-16.9-10.4-28.2-10.4S389.2,479.6,381.6,486.4z"/>
	<path class="st0" d="M628,406v180.9h-22.4v-20.5c-5.2,7.2-11.8,12.6-19.7,16.3c-8,3.7-16.7,5.6-26.3,5.6c-12.5,0-23.7-2.8-33.6-8.3
		c-9.9-5.5-17.7-13.3-23.3-23.3s-8.4-21.5-8.4-34.5c0-13,2.8-24.5,8.4-34.4c5.6-9.9,13.4-17.6,23.3-23.2c9.9-5.5,21.1-8.3,33.6-8.3
		c9.3,0,17.8,1.7,25.6,5.2c7.8,3.5,14.3,8.7,19.5,15.5V406H628z M583.6,562.1c6.7-3.8,11.9-9.2,15.6-16.1c3.7-6.9,5.6-14.8,5.6-23.8
		c0-8.9-1.9-16.9-5.6-23.8c-3.7-6.9-8.9-12.2-15.6-16c-6.7-3.7-14.1-5.6-22.2-5.6c-8.3,0-15.7,1.9-22.3,5.6
		c-6.6,3.7-11.8,9.1-15.6,16c-3.8,6.9-5.7,14.8-5.7,23.8c0,8.9,1.9,16.9,5.7,23.8c3.8,6.9,9,12.3,15.6,16.1c6.6,3.8,14,5.7,22.3,5.7
		C569.5,567.8,576.9,565.9,583.6,562.1z"/>
	<path class="st1" d="M662.1,416h98c6.6,0,11.9,5.4,11.9,12.2c0,6.6-5.4,11.9-11.9,11.9H723v134.8c0,6.8-5.4,12.2-11.9,12.2
		c-6.8,0-12.2-5.4-12.2-12.2V440.1h-36.8c-6.8,0-12.2-5.4-12.2-11.9C649.9,421.3,655.2,416,662.1,416z"/>
	<path class="st1" d="M882.2,525.7c0,6.6-5.4,11.9-12.2,11.9h-84.1c5.1,14.6,18.8,25.1,35.1,25.1c5.6,0,15.6-0.5,27.3-8
		c5.6-3.7,13.2-0.2,16.1,5.6c2.9,6.1-0.2,12.4-5.9,16.1c-16.1,10.7-28.5,10.5-37.5,10.5c-33.9,0-61.2-27.5-61.2-61.2
		c0-33.9,27.3-61.2,61.2-61.2C850.5,464.5,882.2,485.9,882.2,525.7z M785.9,513.5h70.4c-5.1-17.1-20.7-24.9-35.3-24.9
		C804.7,488.6,791,499.1,785.9,513.5z"/>
	<path class="st1" d="M896.8,525.9c0-33.9,27.3-61.2,60.9-61.2c21.9,0,42.2,11.7,53.1,30.5c3.4,5.9,1.2,13.2-4.4,16.6
		c-5.8,3.2-13.2,1.2-16.6-4.4c-6.6-11.5-18.8-18.5-32.2-18.5c-20.2,0-37.1,16.6-37.1,37.1c0,20.2,16.8,37.1,37.1,37.1
		c12.7,0,24.4-6.3,31.2-17.1c3.7-5.6,11.2-7.1,16.8-3.7c5.6,3.7,7.1,11.2,3.4,16.8c-11.2,17.5-30.5,28-51.4,28
		C924.1,587.1,896.8,559.5,896.8,525.9z"/>
	<path class="st1" d="M1148.6,525.7v49c0,6.8-5.4,12.2-12.2,12.2c-6.6,0-11.9-5.4-11.9-12.2v-49c0-20.5-16.6-37.1-37.1-37.1
		s-37.1,16.6-37.1,37.1v49c0,6.8-5.4,12.2-12.2,12.2c-6.6,0-11.9-5.4-11.9-12.2v-49c0-33.9,27.5-61.2,61.2-61.2
		S1148.6,491.8,1148.6,525.7z"/>
	<path class="st1" d="M1163,525.7c0-33.9,27.5-61.2,61.2-61.2c33.9,0,61.2,27.3,61.2,61.2c0,33.6-27.3,61.2-61.2,61.2
		C1190.5,586.8,1163,559.3,1163,525.7z M1187.1,525.7c0,20.2,16.6,37.1,37.1,37.1s37.1-16.8,37.1-37.1c0-20.5-16.6-37.1-37.1-37.1
		S1187.1,505.2,1187.1,525.7z"/>
	<path class="st1" d="M1299.2,574.9V416.2c0-6.6,5.4-11.9,12.2-11.9c6.6,0,11.9,5.4,11.9,11.9v158.7c0,6.8-5.4,12.2-11.9,12.2
		C1304.6,587.1,1299.2,581.7,1299.2,574.9z"/>
	<path class="st2" d="M1337.3,525.7c0-33.9,27.5-61.2,61.2-61.2c33.9,0,61.2,27.3,61.2,61.2c0,33.6-27.3,61.2-61.2,61.2
		C1364.8,586.8,1337.3,559.3,1337.3,525.7z M1361.4,525.7c0,20.2,16.6,37.1,37.1,37.1s37.1-16.8,37.1-37.1
		c0-20.5-16.6-37.1-37.1-37.1S1361.4,505.2,1361.4,525.7z"/>
	<path class="st1" d="M1596.4,586.8c0,33.6-27.5,61.2-61.2,61.2c-23.6,0-44.6-13.2-55.1-34.4c-2.9-6.1-0.5-13.2,5.6-16.1
		c5.9-2.9,13.2-0.5,16.1,5.4c6.3,12.9,19,21,33.4,21c20.2,0,36.6-16.3,37.1-36.3c0-0.2,0-0.5,0-13.4c-10.5,7.8-23.2,12.7-37.1,12.7
		c-33.9,0-61.2-27.5-61.2-61.2c0-33.9,27.3-61.2,61.2-61.2c33.6,0,61.2,27.3,61.2,61.2C1596.4,525.7,1596.4,525.7,1596.4,586.8z
		 M1572.2,525.7c0-20.5-16.8-37.1-37.1-37.1c-20.5,0-37.1,16.6-37.1,37.1c0,20.2,16.6,37.1,37.1,37.1
		C1555.4,562.7,1572.2,545.9,1572.2,525.7z"/>
	<path class="st1" d="M1613.9,436.9c-2.2-2.2-3.7-5.4-3.7-8.5s1.5-6.3,3.7-8.5c2.2-2.2,5.4-3.7,8.5-3.7s6.3,1.5,8.5,3.7
		c2.2,2.2,3.4,5.4,3.4,8.5s-1.2,6.3-3.4,8.5c-2.2,2.2-5.4,3.4-8.5,3.4S1616.1,439.1,1613.9,436.9z M1610.3,574.9v-98.2
		c0-6.6,5.4-11.9,12.2-11.9c6.6,0,11.9,5.4,11.9,11.9v98.2c0,6.8-5.4,12.2-11.9,12.2C1615.6,587.1,1610.3,581.7,1610.3,574.9z"/>
	<path class="st1" d="M1770.9,526.6v47.8c0,7.1-5.1,12.2-12.2,12.2c-4.9,0-11.7-5.1-11.7-12.2c-10.5,8.8-22.2,12.2-36.1,12.2
		c-34.4,0-61.7-25.6-61.7-60c0-34.4,27.3-61.7,61.7-61.7S1770.9,492.3,1770.9,526.6z M1747,526.6c0-20.5-15.6-37.8-36.1-37.8
		c-20.5,0-37.8,17.3-37.8,37.8c0,20.5,17.3,36.1,37.8,36.1C1731.4,562.7,1747,547.1,1747,526.6z"/>
</g>
<g>
	<path class="st3" d="M1218.9,2351.1c-224.6,0-449.1-0.1-673.7,0.3c-11.6,0-13.9-2.3-13.9-13.9c0.4-408.5,0.4-817,0-1225.6
		c0-11.6,2.3-13.9,13.9-13.9c450.3,0.4,900.6,0.4,1350.8,0c11.6,0,13.9,2.3,13.9,13.9c-0.4,408.5-0.4,817,0,1225.6
		c0,11.6-2.3,13.9-13.9,13.9C1670.3,2351,1444.6,2351.1,1218.9,2351.1z M1201.6,2152.5c-44.7,4-106.8-5-144.4-19.4
		c-104.8-40-179.5-111.2-224.4-214.2c-27.3-62.7-34.6-128.5-25.7-195.1c9.5-71.4,36.9-136.5,84.2-192.1
		c63.5-74.6,143-120.1,240.5-134.1c21.7-3.1,43.9-1.7,65.2-7.9c21.3-6.2,33.8-25.2,31.2-47.8c-2.2-19.9-19-35.5-39.7-36.6
		c-24.8-1.4-49.3-0.5-74,3.8c-101.5,17.8-190.5,59.8-262.9,134.3c-124.5,128.2-164.6,280.6-120.6,452.3
		c38,147.9,133.4,250.7,272.4,311.7c91.9,40.3,188,46.1,285.9,23.8c126.3-28.8,222.3-100,292.1-207.6
		c36.3-55.9,58.9-117.6,67.6-183.7c3.4-25.9,10.7-52.3,2.4-78.8c-7.2-23.1-23.2-33-47.8-30.1c-21.4,2.5-34.7,17-37.6,38.8
		c-4.4,34-4.3,68.9-13.8,101.8c-29.9,103.8-91.5,183.6-186.3,236.2C1313.5,2136.7,1256.8,2151.7,1201.6,2152.5z M1080.4,1774.8
		c0,56,41,100.6,102.7,103.9c54.6,2.9,105.7-47.9,105.6-101.9c-0.1-64.1-47-106-100.8-107.8
		C1126.6,1667.1,1080.4,1714.4,1080.4,1774.8z M1308.5,1393c-0.3,42.6,33,76.1,75.6,76.3c39.8,0.1,76.1-35.6,76.1-75
		c0-42.9-34.6-81.6-76.7-79.5C1341.4,1316.9,1311,1339.6,1308.5,1393z M1490.1,1588c-0.1,40.9,33.3,75.9,72.6,76
		c39.5,0.1,78.2-36.2,78.5-73.7c0.3-40-36.2-77.3-75.9-77.7C1521.9,1512.2,1490.2,1544,1490.1,1588z"/>
	<path class="st0" d="M1400.6,576.4c7.2-0.1,14.7-2.1,21.5-5.9c12.4-6.9,20.5-17.3,24.4-30.9c1.2-4.3,1.2-8.9,1.8-13.3
		c0.4-2.9,2.1-4.8,4.9-5.1c3.2-0.4,5.3,0.9,6.3,3.9c1.1,3.5,0.1,6.9-0.3,10.3c-1.1,8.7-4.1,16.7-8.9,24.1
		c-9.1,14.1-21.7,23.4-38.3,27.2c-12.8,2.9-25.4,2.2-37.4-3.1c-18.2-8-30.7-21.4-35.7-40.8c-5.8-22.5-0.5-42.4,15.8-59.2
		c9.5-9.8,21.1-15.3,34.4-17.6c3.2-0.6,6.4-0.7,9.7-0.5c2.7,0.1,4.9,2.2,5.2,4.8c0.3,3-1.3,5.4-4.1,6.3c-2.8,0.8-5.7,0.6-8.5,1
		c-12.8,1.8-23.2,7.8-31.5,17.6c-6.2,7.3-9.8,15.8-11,25.2c-1.2,8.7-0.2,17.3,3.4,25.5c5.9,13.5,15.7,22.8,29.4,28.1
		C1386.6,575.7,1394.8,576.9,1400.6,576.4z"/>
	<path class="st1" d="M1384.7,526.9c0-7.9,6.1-14.1,14.1-13.9c7.1,0.2,13.2,5.7,13.2,14.1c0,7.1-6.7,13.7-13.8,13.3
		C1390.1,540.1,1384.7,534.3,1384.7,526.9z"/>
	<path class="st4" d="M1414.6,476.9c0.3-7,4.3-10,9.8-10.2c5.5-0.3,10,4.8,10,10.4c0,5.2-4.8,9.8-10,9.8
		C1418.9,486.9,1414.6,482.5,1414.6,476.9z"/>
	<path class="st1" d="M1438.4,502.5c0-5.8,4.2-9.9,9.9-9.9c5.2,0,10,4.9,9.9,10.2c0,4.9-5.1,9.7-10.3,9.7
		C1442.7,512.4,1438.4,507.8,1438.4,502.5z"/>
</g>
</svg>
